<svg xmlns="http://www.w3.org/2000/svg" width="14" height="14" viewBox="0 0 14 14"><path fill="#86A1BF" d="M9.95856088,8.72112401 L13.6187184,12.3812816 C13.9604272,12.7229903 13.9604272,13.2770097 13.6187184,13.6187184 C13.2770097,13.9604272 12.7229903,13.9604272 12.3812816,13.6187184 L8.72112401,9.95856088 C7.81577964,10.6137756 6.70299359,11 5.5,11 C2.46243388,11 0,8.53756612 0,5.5 C0,2.46243388 2.46243388,0 5.5,0 C8.53756612,0 11,2.46243388 11,5.5 C11,6.70299359 10.6137756,7.81577964 9.95856088,8.72112401 Z M5.5,9.25 C7.57106781,9.25 9.25,7.57106781 9.25,5.5 C9.25,3.42893219 7.57106781,1.75 5.5,1.75 C3.42893219,1.75 1.75,3.42893219 1.75,5.5 C1.75,7.57106781 3.42893219,9.25 5.5,9.25 Z"/></svg>
